# xmcd
#
# Track frame offsets:
#	150
#	14607
#	30762
#	49432
#	69275
#	89875
#	102497
#	116645
#	131605
#	148180
#	161997
#	180750
#	198912
#
# Disc length: 2942 seconds
#
# Revision: 20
# Processed by: cddbd v1.5.2PL0 Copyright (c) Steve Scherf et al.
# Submitted via: audiograbber 1.83.01
#
DISCID=b80b7c0d
DTITLE=R. Kelly and Jay-Z - The Best Of Both Worlds
DYEAR=2002
DGENRE=Rap
TTITLE0=R. Kelly, Jay-Z - The Best Of Both Worlds
TTITLE1=R. Kelly, Jay-Z - Take You Home With Me A.K.A. Body
TTITLE2=R. Kelly, Jay-Z - Break Up To Make Up
TTITLE3=R. Kelly, Jay-Z - It Ain't Personal
TTITLE4=R. Kelly, Jay-Z - The Streets
TTITLE5=R. Kelly, Jay-Z, Beanie Sigel - Green Light
TTITLE6=R. Kelly, Jay-Z - Naked
TTITLE7=R. Kelly, Jay-Z, Lil' Kim - Shake Ya Body
TTITLE8=R. Kelly, Jay-Z - Somebody's Girl
TTITLE9=R. Kelly, Jay-Z - Get This Money
TTITLE10=R. Kelly, Jay-Z - Shorty
TTITLE11=R. Kelly, Jay-Z, The Bee Gees - Honey
TTITLE12=R. Kelly, Jay-Z, Devin The Dude - Pussy
EXTD=www.RapMusicGuide.com\n
EXTT0=
EXTT1=
EXTT2=
EXTT3=
EXTT4=
EXTT5=
EXTT6=
EXTT7=
EXTT8=
EXTT9=
EXTT10=
EXTT11=
EXTT12=
PLAYORDER=
